<svg id="Calque_1" data-name="Calque 1" xmlns="http://www.w3.org/2000/svg" width="1080" height="1080" viewBox="0 0 1080 1080">
  <rect x="-28.35" y="-15.71" width="1108.35" height="1108.35" style="fill: #2b2f80"/>
  <g>
    <path d="M637.92,653.64v-.34q0-8,3.77-12.72a12.54,12.54,0,0,1,10.3-4.66q6.72,0,10.48,4.66c2.51,3.12,3.78,7.36,3.78,12.72v.34Zm14.25,53q12.74,0,22.12-4.1t14.34-9.69c3.29-3.71,4.94-7,4.94-9.84a3,3,0,0,0-1.08-2.38,4,4,0,0,0-2.61-.89H669.1a7.93,7.93,0,0,0-2.94.39,8.6,8.6,0,0,0-2.43,2.23,23.15,23.15,0,0,1-4.86,4.17,12.4,12.4,0,0,1-6.88,1.73q-6.69,0-10.21-4.76T637.92,671v-1.15h53.65a4,4,0,0,0,3-1.24,4,4,0,0,0,1.16-2.87v-3.94a49.89,49.89,0,0,0-4.94-22.64,36.48,36.48,0,0,0-14.75-15.5Q666.24,618,652,618q-19.61,0-31.25,10.91t-12.32,30.28V665q.5,20.34,12.07,31t31.68,10.66m-97.06,0q19.8,0,30.86-7.31t11-19.43c0-6.36-2.48-11.87-7.45-16.58s-12.89-8-23.72-9.85a103.47,103.47,0,0,1-13.66-3.19c-3.08-1-5.1-2.11-6-3.21a6,6,0,0,1-1.43-4.09,6.06,6.06,0,0,1,2.6-5.09,11.25,11.25,0,0,1,7-2,15,15,0,0,1,6.19,1.14,29.27,29.27,0,0,1,5.37,3.29,26.33,26.33,0,0,0,3.85,2.46,4.34,4.34,0,0,0,2.51.81h17.44a3.43,3.43,0,0,0,2.59-1.15,3.66,3.66,0,0,0,1.09-2.62q0-4.27-4.6-9.44t-13.5-8.79a55.3,55.3,0,0,0-20.79-3.6q-11.91,0-20.53,3.78t-13,9.84a21.62,21.62,0,0,0-4.35,12.8q0,10.68,7.45,17t21.37,9.11a109.93,109.93,0,0,1,13.75,3.37c3,1,5.05,2.1,6.12,3.19a6.1,6.1,0,0,1,1.59,4.43,6,6,0,0,1-3.1,5.34,15.18,15.18,0,0,1-8,1.89,16.68,16.68,0,0,1-6.79-1.24,38.27,38.27,0,0,1-6.45-3.84,35.06,35.06,0,0,0-3-2.15,2.62,2.62,0,0,0-1.84-.81H518.57a4.14,4.14,0,0,0-2.76,1.07,3.37,3.37,0,0,0-1.26,2.7q0,4.11,4.36,9.35t13.49,9q9.15,3.76,22.71,3.77M475.51,705h19.77a4,4,0,0,0,3-1.22,4.07,4.07,0,0,0,1.18-2.87V623.77a4,4,0,0,0-1.18-3,4.14,4.14,0,0,0-3-1.16H475.51a4.15,4.15,0,0,0-3,1.16,3.94,3.94,0,0,0-1.18,3V700.9a3.92,3.92,0,0,0,1.18,3,4.14,4.14,0,0,0,3,1.14m-.18-97.64h20.12a4.17,4.17,0,0,0,3-1.15,3.93,3.93,0,0,0,1.17-3V588.48a4,4,0,0,0-1.17-3,4.2,4.2,0,0,0-3-1.14H475.33a4.17,4.17,0,0,0-3,1.14,4,4,0,0,0-1.17,3v14.77a4,4,0,0,0,1.17,3,4.13,4.13,0,0,0,3,1.15m-65.2,79.27c-4.81,0-8.42-1.46-10.81-4.35s-3.72-7.35-3.94-13.37l-.16-6.58.16-6.56Q396.21,638,410.13,638c4.81,0,8.4,1.48,10.81,4.43s3.77,7.39,4.1,13.29c.11,1.1.18,3.29.18,6.56s-.07,5.48-.18,6.58c-.33,6-1.67,10.46-4,13.37s-6,4.35-10.89,4.35m0,20q21,0,32.19-9.67t12.23-27.25q.17-2.13.17-7.39t-.17-7.38q-1-17.38-12.57-27.16T410.13,618q-20.1,0-31.68,9.76c-7.72,6.52-11.89,15.57-12.58,27.16q-.17,2.14-.16,7.38t.16,7.39c.69,11.7,4.75,20.78,12.25,27.25s18.15,9.67,32,9.67m-85-1.64h19.79a4.13,4.13,0,0,0,3-1.14,4,4,0,0,0,1.18-3V592.58a4,4,0,0,0-1.18-3,4.09,4.09,0,0,0-3-1.15H325.14a4.18,4.18,0,0,0-2.92,1.15,3.83,3.83,0,0,0-1.26,3V700.9a3.91,3.91,0,0,0,1.26,2.87,4.08,4.08,0,0,0,2.92,1.22m-69-17.07a14.93,14.93,0,0,1-8.56-2.38,7.4,7.4,0,0,1-3.51-6.48q0-7.69,15.08-10.34l14.25-2.46v2.3q0,9.54-4.78,14.44c-3.19,3.29-7.35,4.92-12.48,4.92m-7.88,18.71a35.84,35.84,0,0,0,15.66-3.19,27.06,27.06,0,0,0,10.32-8.29v5.75a3.9,3.9,0,0,0,1.25,2.87,4.11,4.11,0,0,0,2.94,1.22h19.44a4,4,0,0,0,3-1.22A4.1,4.1,0,0,0,302,700.9V651q0-15.11-9.89-24T261.62,618q-12.9,0-21.71,3.94c-5.85,2.62-10.22,5.75-13.06,9.35s-4.34,6.89-4.45,9.85a2.91,2.91,0,0,0,.92,2.54,3.81,3.81,0,0,0,2.76,1.08h18.28a1.85,1.85,0,0,0,1.84-1.32,29.32,29.32,0,0,0,3.53-2.62,27.12,27.12,0,0,1,5.19-3.62,13.63,13.63,0,0,1,6.37-1.3q6.36,0,9,3c1.78,2,2.68,5,2.68,9.18v2.3l-21,3.11Q235.49,656.09,226,663t-9.46,18.21a21.92,21.92,0,0,0,4.1,12.88,27.79,27.79,0,0,0,11.4,9.18,37.86,37.86,0,0,0,16.18,3.37M143.29,642.31V612.94H162.9q7.86,0,11.81,4c2.62,2.69,3.94,6.26,3.94,10.76q0,7.21-4.19,10.9t-11.56,3.7ZM116.8,705h22.63a4.44,4.44,0,0,0,3.09-1.14,3.77,3.77,0,0,0,1.26-3V665h20q21.6,0,33.86-9.27T209.82,628q0-18.53-12.32-28.22t-33.76-9.68H116.8a4.28,4.28,0,0,0-2.94,1.16,3.78,3.78,0,0,0-1.25,3V700.9a3.9,3.9,0,0,0,1.25,2.87A4.12,4.12,0,0,0,116.8,705" style="fill: #fff"/>
    <path d="M955,494.23v-.34c0-5.36,1.27-9.6,3.78-12.71a12.53,12.53,0,0,1,10.31-4.67q6.69,0,10.48,4.67t3.76,12.71v.34Zm14.26,53c8.48,0,15.87-1.37,22.12-4.1s11-6,14.33-9.68,5-7,5-9.85a2.91,2.91,0,0,0-1.1-2.38,4,4,0,0,0-2.58-.89H986.23a7.85,7.85,0,0,0-2.94.4,8.12,8.12,0,0,0-2.43,2.22,24,24,0,0,1-4.86,4.18,12.5,12.5,0,0,1-6.87,1.73c-4.46,0-7.88-1.59-10.23-4.77s-3.64-7.32-3.86-12.46v-1.15h53.64a4,4,0,0,0,3-1.24,4,4,0,0,0,1.18-2.87v-3.94a50,50,0,0,0-4.94-22.64,36.66,36.66,0,0,0-14.75-15.5q-9.83-5.67-24.06-5.67-19.61,0-31.27,10.91T925.55,499.8v5.75q.51,20.34,12.07,31t31.68,10.66m-115.67,0q19.14,0,27.84-12v6.24a3.8,3.8,0,0,0,1.26,2.85,4,4,0,0,0,2.93,1.24H905.1a4.11,4.11,0,0,0,4.19-4.09V464.36a3.93,3.93,0,0,0-1.17-2.95,4.14,4.14,0,0,0-3-1.16H884.16a4.2,4.2,0,0,0-2.94,1.16,3.79,3.79,0,0,0-1.26,2.95v44.8q0,7.55-4,11.81t-11,4.27q-14.61,0-14.6-16.08v-44.8a3.78,3.78,0,0,0-1.25-2.95,4.42,4.42,0,0,0-3.1-1.16H825a4.17,4.17,0,0,0-3,1.16,4,4,0,0,0-1.16,2.95v45.78q0,17.55,9.06,27.31t23.78,9.77m-96-22q-7.87,0-11.3-4.6c-2.31-3.07-3.61-7.28-3.94-12.63-.11-1.09-.18-2.79-.18-5.1s.07-4,.18-5.08c.33-5.36,1.63-9.57,3.94-12.64s6.05-4.59,11.3-4.59,8.94,1.59,11.41,4.77a20.51,20.51,0,0,1,4,12c.23,2.84.34,4.88.34,6.07s-.11,3.4-.34,6.24a17.79,17.79,0,0,1-4.19,11.16c-2.57,3-6.3,4.43-11.23,4.43m19.62,51.52h20.45a4.17,4.17,0,0,0,3-1.15,4,4,0,0,0,1.17-3V464.36a4,4,0,0,0-1.17-2.95,4.14,4.14,0,0,0-3-1.16H778.71a4.21,4.21,0,0,0-2.93,1.16,3.82,3.82,0,0,0-1.26,2.95v5.91q-9-11.65-26-11.66-16.42,0-25.64,10t-10.06,28.24l-.17,6.06.17,6.09q.67,17.71,10.06,28t25.64,10.26q16.44,0,24.47-11v36.43a3.82,3.82,0,0,0,1.26,3,4.25,4.25,0,0,0,2.94,1.15m-105.1-31.18h19.77a4.13,4.13,0,0,0,4.2-4.09V464.36a3.9,3.9,0,0,0-1.18-2.95,4.11,4.11,0,0,0-3-1.16H672.11a4.07,4.07,0,0,0-3,1.16,3.94,3.94,0,0,0-1.18,2.95v77.13a4,4,0,0,0,1.18,3,4.1,4.1,0,0,0,3,1.14m-.17-97.64h20.12a4.17,4.17,0,0,0,3-1.14,4,4,0,0,0,1.17-3V429.07a4,4,0,0,0-1.17-2.95,4.17,4.17,0,0,0-3-1.14H671.94a4.17,4.17,0,0,0-3,1.14,4,4,0,0,0-1.17,2.95v14.77a4,4,0,0,0,1.17,3,4.17,4.17,0,0,0,3,1.14M596,545.58H616.8a4.45,4.45,0,0,0,3.1-1.14,3.8,3.8,0,0,0,1.26-3v-42q0-6.72,3.77-10.42t10.64-3.68h16.26a4,4,0,0,0,3-1.24,4.07,4.07,0,0,0,1.18-2.88V464.36a3.94,3.94,0,0,0-1.18-2.95,4.14,4.14,0,0,0-3-1.16h-7.38q-15.57,0-24.8,10.67v-6.56a3.92,3.92,0,0,0-1.26-2.88,4.25,4.25,0,0,0-3.09-1.23H596a4.11,4.11,0,0,0-3,1.16,3.89,3.89,0,0,0-1.17,2.95v77.13a3.91,3.91,0,0,0,1.17,3,4.14,4.14,0,0,0,3,1.14M523.1,447.94H538a9.06,9.06,0,0,0,3.51-.57,13.54,13.54,0,0,0,2.86-1.72l22.3-17.89a2.66,2.66,0,0,0,.82-2,3.33,3.33,0,0,0-.82-2.37,3.08,3.08,0,0,0-2.35-.9H542.22a8,8,0,0,0-3.37.57,9.87,9.87,0,0,0-2.84,2.54l-14.75,17.56a2.85,2.85,0,0,0-.85,2.13c0,1.75.91,2.62,2.69,2.62m-4.86,46.29v-.34c0-5.36,1.25-9.6,3.78-12.71a12.49,12.49,0,0,1,10.3-4.67q6.7,0,10.47,4.67t3.78,12.71v.34Zm14.24,53q12.75,0,22.14-4.1t14.32-9.68c3.31-3.72,5-7,5-9.85a2.94,2.94,0,0,0-1.1-2.38,4,4,0,0,0-2.6-.89H549.41a7.73,7.73,0,0,0-2.92.4,8.12,8.12,0,0,0-2.43,2.22,24,24,0,0,1-4.86,4.18,12.51,12.51,0,0,1-6.88,1.73q-6.71,0-10.22-4.77t-3.86-12.46v-1.15h53.64a4,4,0,0,0,3-1.24,4,4,0,0,0,1.17-2.87v-3.94a49.76,49.76,0,0,0-5-22.64,36.42,36.42,0,0,0-14.75-15.5q-9.79-5.67-24-5.67-19.62,0-31.26,10.91T488.73,499.8v5.75q.51,20.34,12.07,31t31.68,10.66m-189.57-1.64h19.95a3.94,3.94,0,0,0,3-1.24,4,4,0,0,0,1.18-2.85V495.86q0-7.87,3.6-11.57a12,12,0,0,1,9-3.69,12.23,12.23,0,0,1,9.14,3.69c2.39,2.46,3.6,6.38,3.6,11.73v45.47a4,4,0,0,0,1.18,3,4.1,4.1,0,0,0,3,1.14H416a4.11,4.11,0,0,0,4.19-4.09V496c0-5.35,1.18-9.27,3.53-11.73a11.74,11.74,0,0,1,8.87-3.69,12.25,12.25,0,0,1,9.31,3.61q3.44,3.62,3.44,11.81v45.47a3.8,3.8,0,0,0,1.26,3,4.45,4.45,0,0,0,3.1,1.14h19.43a4.11,4.11,0,0,0,4.19-4.09V494.88q0-18.06-8.62-27.15t-22.37-9.12a31.8,31.8,0,0,0-15.44,3.94,30.36,30.36,0,0,0-11.22,10.18q-7-14.13-25.48-14.12a31.94,31.94,0,0,0-14.49,3.21,29.21,29.21,0,0,0-10.31,8.11v-5.57a4,4,0,0,0-1.17-2.95,4.17,4.17,0,0,0-3-1.16H342.91a4.14,4.14,0,0,0-3,1.16,4,4,0,0,0-1.17,2.95v77.13a4,4,0,0,0,1.17,3,4.17,4.17,0,0,0,3,1.14m-79.62,1.64q19.13,0,27.84-12v6.24a3.83,3.83,0,0,0,1.25,2.85,4,4,0,0,0,2.94,1.24h19.44a4.13,4.13,0,0,0,4.19-4.09V464.36a3.94,3.94,0,0,0-1.18-2.95,4.12,4.12,0,0,0-3-1.16H293.81a4.2,4.2,0,0,0-2.94,1.16,3.78,3.78,0,0,0-1.25,2.95v44.8q0,7.55-4,11.81t-11.05,4.27q-14.59,0-14.59-16.08v-44.8a3.76,3.76,0,0,0-1.26-2.95,4.41,4.41,0,0,0-3.09-1.16h-21a4.14,4.14,0,0,0-3,1.16,3.92,3.92,0,0,0-1.16,2.95v45.78q0,17.55,9.05,27.31t23.79,9.77M116.8,545.58h20.12a4.11,4.11,0,0,0,4.19-4.09V481.75L182,542.47a6,6,0,0,0,5.53,3.11h17.94a4,4,0,0,0,3-1.24,4.2,4.2,0,0,0,1.17-3V434.82a4,4,0,0,0-1.17-2.95,4.18,4.18,0,0,0-3-1.16H185.35a4.3,4.3,0,0,0-2.94,1.16,3.86,3.86,0,0,0-1.25,2.95v62l-40.89-63c-1-2.08-2.91-3.13-5.7-3.13H116.8a4.28,4.28,0,0,0-2.94,1.16,3.8,3.8,0,0,0-1.25,2.95V541.49a3.83,3.83,0,0,0,1.25,2.85,4.06,4.06,0,0,0,2.94,1.24" style="fill: #fff"/>
    <path d="M778.71,334.82v-.33q0-8.06,3.78-12.72a12.54,12.54,0,0,1,10.31-4.69,12.76,12.76,0,0,1,10.48,4.69q3.76,4.67,3.76,12.72v.33Zm14.26,53c8.48,0,15.87-1.37,22.12-4.1s11-5.95,14.33-9.68,5-7,5-9.85a2.93,2.93,0,0,0-1.09-2.38,4,4,0,0,0-2.59-.89H809.9a7.85,7.85,0,0,0-2.94.4,8.12,8.12,0,0,0-2.43,2.22,23.72,23.72,0,0,1-4.86,4.18,12.41,12.41,0,0,1-6.87,1.73c-4.48,0-7.88-1.59-10.23-4.77s-3.63-7.32-3.86-12.46v-1.15h53.65a4,4,0,0,0,3-1.23,4.07,4.07,0,0,0,1.18-2.88V343a49.92,49.92,0,0,0-4.94-22.64,36.6,36.6,0,0,0-14.75-15.5Q807,299.2,792.8,299.2q-19.6,0-31.27,10.91t-12.3,30.28v5.75q.49,20.34,12.06,31T793,387.81m-115.66,0q19.13,0,27.83-12v6.24a3.86,3.86,0,0,0,1.26,2.86,4,4,0,0,0,2.92,1.23h19.45a4.1,4.1,0,0,0,4.19-4.09V305a3.93,3.93,0,0,0-1.17-2.95,4.14,4.14,0,0,0-3-1.16h-21a4.15,4.15,0,0,0-2.92,1.16,3.79,3.79,0,0,0-1.26,2.95v44.8q0,7.54-4,11.81t-11.05,4.27q-14.61,0-14.59-16.08V305A3.79,3.79,0,0,0,672.7,302a4.42,4.42,0,0,0-3.1-1.16h-21a4.13,4.13,0,0,0-3,1.16,3.94,3.94,0,0,0-1.18,2.95v45.78q0,17.55,9,27.31t23.81,9.77m-96-22c-5.26,0-9-1.54-11.31-4.6S566.35,354,566,348.6a76.29,76.29,0,0,1,0-10.18q.5-8,3.94-12.64c2.29-3.06,6-4.58,11.31-4.58s8.94,1.58,11.4,4.76a20.51,20.51,0,0,1,4,12q.35,4.26.34,6.07,0,2-.34,6.24a17.79,17.79,0,0,1-4.19,11.16c-2.57,3-6.3,4.43-11.22,4.43m19.61,51.52h20.45a4.13,4.13,0,0,0,3-1.15,3.93,3.93,0,0,0,1.17-2.95V305a3.93,3.93,0,0,0-1.17-2.95,4.14,4.14,0,0,0-3-1.16H602.39a4.22,4.22,0,0,0-2.94,1.16,3.82,3.82,0,0,0-1.26,2.95v5.91q-9-11.66-26-11.66-16.43,0-25.64,10t-10.05,28.23l-.18,6.07.18,6.08q.66,17.71,10.05,28t25.64,10.26q16.44,0,24.47-11v36.43a3.82,3.82,0,0,0,1.26,2.95,4.23,4.23,0,0,0,2.94,1.15m-105.1-31.18h19.77a4,4,0,0,0,3-1.23,3.93,3.93,0,0,0,1.18-2.86V305a3.87,3.87,0,0,0-1.18-2.95,4.11,4.11,0,0,0-3-1.16H495.78a4.1,4.1,0,0,0-3,1.16,3.94,3.94,0,0,0-1.18,2.95v77.13a4,4,0,0,0,1.18,2.95,4.13,4.13,0,0,0,3,1.14m-.17-97.64h20.12a4.17,4.17,0,0,0,3-1.14,4,4,0,0,0,1.17-3V269.67a4,4,0,0,0-1.17-3,4.17,4.17,0,0,0-3-1.14H495.61a4.17,4.17,0,0,0-3,1.14,4,4,0,0,0-1.17,3v14.76a4,4,0,0,0,1.17,3,4.17,4.17,0,0,0,3,1.14m-75.92,97.64h20.79a4.44,4.44,0,0,0,3.09-1.14,3.8,3.8,0,0,0,1.26-2.95v-42c0-4.48,1.25-8,3.78-10.42s6.05-3.68,10.64-3.68h16.26a4,4,0,0,0,3-1.24,4.07,4.07,0,0,0,1.18-2.87V305a3.94,3.94,0,0,0-1.18-2.95,4.13,4.13,0,0,0-3-1.16h-7.39q-15.57,0-24.8,10.67V305a3.84,3.84,0,0,0-1.26-2.87,4.22,4.22,0,0,0-3.09-1.24H419.69a4.11,4.11,0,0,0-3,1.16A3.89,3.89,0,0,0,415.5,305v77.13a3.91,3.91,0,0,0,1.17,2.95,4.14,4.14,0,0,0,3,1.14M354,365.83c-5.15,0-8.91-1.57-11.32-4.68a21.64,21.64,0,0,1-4.1-12l-.18-6.24.18-6.07a17.75,17.75,0,0,1,4.19-11.16q3.86-4.44,11.23-4.43,7.88,0,11.31,4.58c2.3,3.07,3.6,7.28,3.95,12.64.22,2.2.33,3.9.33,5.09s-.11,2.9-.33,5.09c-.35,5.35-1.65,9.56-3.95,12.63s-6.06,4.6-11.31,4.6m9,22q16.44,0,25.65-10.08t10.05-28.48c.11-1.42.17-3.33.17-5.74s-.06-4.48-.17-5.91q-.68-17.73-10.05-28.06T363,299.2q-15.07,0-24.47,9.69V273.76a4,4,0,0,0-1.18-2.95,4.13,4.13,0,0,0-3-1.14H313.91a4.2,4.2,0,0,0-2.92,1.14,3.86,3.86,0,0,0-1.27,2.95V382.08a3.87,3.87,0,0,0,1.27,2.86,4,4,0,0,0,2.92,1.23h18.95a4.1,4.1,0,0,0,4.19-4.09v-5.26q9.22,11,26,11M244.85,369.1a14.86,14.86,0,0,1-8.54-2.38,7.4,7.4,0,0,1-3.53-6.48q0-7.69,15.09-10.33l14.26-2.47v2.31q0,9.53-4.78,14.43c-3.19,3.29-7.35,4.92-12.5,4.92M237,387.81a35.71,35.71,0,0,0,15.67-3.19A26.86,26.86,0,0,0,263,376.33v5.75a3.83,3.83,0,0,0,1.27,2.86,4,4,0,0,0,2.92,1.23H286.6a4.1,4.1,0,0,0,4.19-4.09v-49.9q0-15.09-9.89-24t-30.5-8.94q-12.92,0-21.71,3.94c-5.88,2.62-10.23,5.75-13.09,9.35s-4.32,6.89-4.43,9.85a2.91,2.91,0,0,0,.92,2.54,3.8,3.8,0,0,0,2.77,1.08h18.27a1.87,1.87,0,0,0,1.85-1.32,28.43,28.43,0,0,0,3.51-2.62,27.48,27.48,0,0,1,5.2-3.62,13.74,13.74,0,0,1,6.37-1.32c4.24,0,7.26,1,9.05,3s2.67,5,2.67,9.18v2.3l-20.94,3.12q-16.6,2.61-26.06,9.52t-9.48,18.22a21.82,21.82,0,0,0,4.11,12.88,27.85,27.85,0,0,0,11.4,9.17A37.84,37.84,0,0,0,237,387.81M116.8,386.17h21.12a4.17,4.17,0,0,0,3-1.14,4,4,0,0,0,1.17-2.95V345h48.43a4.1,4.1,0,0,0,4.2-4.09V324.48a4.22,4.22,0,0,0-1.18-3.05,4,4,0,0,0-3-1.22H142.11V296.09h51.8a4.1,4.1,0,0,0,4.18-4.11V275.41a3.94,3.94,0,0,0-1.16-3,4.21,4.21,0,0,0-3-1.16H116.8a4.28,4.28,0,0,0-2.94,1.16,3.8,3.8,0,0,0-1.25,3V382.08a3.85,3.85,0,0,0,1.25,2.86,4.09,4.09,0,0,0,2.94,1.23" style="fill: #fff"/>
  </g>
</svg>
