<svg id="_x31__x2C_5" enable-background="new 0 0 24 24" height="512" viewBox="0 0 24 24" width="512" xmlns="http://www.w3.org/2000/svg"><path d="m19.25 6.75h-14.5c-.552 0-1 .448-1 1v7.25l4.711-3.338 2.243 1.7 4.547-3.65 4.999 4.539v-6.5c0-.553-.448-1.001-1-1.001z" fill="#eceff1"/><path d="m16.08 17.25h-11.33c-.552 0-1-.448-1-1v-1.5l4.75-3.25z" fill="#00bcd4"/><path d="m20.25 13.75v2.5c0 .552-.448 1-1 1h-3.67l-4.9-4.04 4.57-3.71z" fill="#0097a7"/><path d="m19.214 24c-.414 0-.75-.336-.75-.75s.336-.75.75-.75h2.036c.414 0 .762.335.762.75 0 .414-.324.75-.738.75v-.75l-.003.75zm-3.055 0h-2.037c-.414 0-.75-.336-.75-.75s.336-.75.75-.75h2.037c.414 0 .75.336.75.75s-.336.75-.75.75zm-5.091 0h-2.037c-.414 0-.75-.336-.75-.75s.336-.75.75-.75h2.037c.414 0 .75.336.75.75s-.336.75-.75.75zm-5.091 0h-2.037c-.414 0-.75-.336-.75-.75s.336-.75.75-.75h2.036c.414 0 .75.336.75.75s-.335.75-.749.75zm-4.832-.807c-.229 0-.455-.104-.603-.302-.355-.477-.543-1.046-.542-1.642v-.756c0-.414.336-.75.75-.75s.75.336.75.75v.758c-.001.272.084.529.245.745.247.333.179.802-.153 1.05-.135.099-.292.147-.447.147zm22.104-1.878-.749-.033v-2.003c0-.414.336-.75.75-.75s.75.335.75.749v1.972zm-22.499-3.127c-.414 0-.75-.336-.75-.75v-2.036c0-.414.336-.75.75-.75s.75.336.75.75v2.036c0 .414-.336.75-.75.75zm22.5-1.214c-.414 0-.75-.336-.75-.75v-2.036c0-.414.336-.75.75-.75s.75.335.75.75v2.036c0 .414-.336.75-.75.75zm-22.5-3.877c-.414 0-.75-.336-.75-.75v-2.037c0-.414.336-.75.75-.75s.75.336.75.75v2.037c0 .414-.336.75-.75.75zm22.5-1.214c-.414 0-.75-.336-.75-.75v-2.037c0-.414.336-.75.75-.75s.75.336.75.75v2.037c0 .414-.336.75-.75.75zm-22.5-3.878c-.414 0-.75-.336-.75-.75v-2.036c0-.414.336-.75.75-.75s.75.336.75.75v2.036c0 .414-.336.75-.75.75zm22.5-1.213c-.414 0-.75-.336-.75-.75v-2.037c0-.414.336-.75.75-.75s.75.336.75.75v2.036c0 .415-.336.751-.75.751zm-22.415-3.87c-.071 0-.145-.01-.217-.032-.396-.12-.621-.538-.501-.935.273-.906 1.011-1.62 1.925-1.864.41-.109.813.131.918.532.106.4-.131.811-.531.917-.416.111-.751.437-.876.849-.098.324-.396.533-.718.533zm21.659-.988c-.163 0-.327-.053-.466-.163-.223-.177-.492-.271-.778-.271h-.693c-.414 0-.75-.336-.75-.75s.336-.75.75-.75h.693c.619 0 1.228.212 1.712.597.324.258.378.729.12 1.054-.147.186-.366.283-.588.283zm-4.992-.434h-2.036c-.414 0-.75-.336-.75-.75s.336-.75.75-.75h2.036c.414 0 .75.336.75.75s-.336.75-.75.75zm-5.091 0h-2.036c-.414 0-.75-.336-.75-.75s.336-.75.75-.75h2.036c.414 0 .75.336.75.75s-.336.75-.75.75zm-5.091 0h-2.036c-.414 0-.75-.336-.75-.75s.336-.75.75-.75h2.036c.414 0 .75.336.75.75s-.336.75-.75.75z"/><path d="m19.25 18h-14.5c-.965 0-1.75-.785-1.75-1.75v-8.5c0-.965.785-1.75 1.75-1.75h14.5c.965 0 1.75.785 1.75 1.75v8.5c0 .965-.785 1.75-1.75 1.75zm-14.5-10.5c-.138 0-.25.112-.25.25v8.5c0 .138.112.25.25.25h14.5c.138 0 .25-.112.25-.25v-8.5c0-.138-.112-.25-.25-.25z"/><path d="m15.749 18c-.157 0-.316-.05-.452-.152l-6.836-5.186-4.311 2.722c-.35.221-.813.116-1.034-.234-.222-.35-.117-.813.233-1.035l4.75-3c.265-.167.604-.152.854.037l7.25 5.5c.33.25.395.721.145 1.051-.148.195-.372.297-.599.297z"/><path d="m20.25 14.5c-.165 0-.33-.054-.469-.165l-4.537-3.629-3.903 3.045c-.327.255-.798.195-1.052-.13-.255-.327-.197-.798.13-1.053l4.37-3.41c.272-.214.659-.212.93.006l5 4c.323.259.376.73.117 1.054-.148.186-.366.282-.586.282z"/></svg>