<svg id="Calque_1" data-name="Calque 1" xmlns="http://www.w3.org/2000/svg" width="1080" height="1080" viewBox="0 0 1080 1080">
  <g>
    <circle cx="513.14" cy="384.66" r="117.36" style="fill: #eb6023"/>
    <path d="M424.47,528.09A104.33,104.33,0,0,0,320.15,632.41h313a52.15,52.15,0,0,1,52.15,52.16V820.18A20.86,20.86,0,0,0,706.13,841h62.59a20.86,20.86,0,0,0,20.86-20.86V684.57A156.48,156.48,0,0,0,633.1,528.09Z" style="fill: #eb6023"/>
    <path d="M255.84,632.41h64.32a0,0,0,0,1,0,0V819a22,22,0,0,1-22,22H237.84a22,22,0,0,1-22-22V672.41A40,40,0,0,1,255.84,632.41Z" style="fill: #2a3081"/>
  </g>
</svg>
