<svg id="Calque_1" data-name="Calque 1" xmlns="http://www.w3.org/2000/svg" width="1080" height="1080" viewBox="0 0 1080 1080">
  <g>
    <path d="M426.28,312.94a20.63,20.63,0,0,1,20.63-20.63H642.85A123.76,123.76,0,0,1,766.61,416.06H446.91a20.63,20.63,0,0,1-20.63-20.62Z" style="fill: #fcbd30"/>
    <path d="M869.74,756.39a20.62,20.62,0,0,0,20.62-20.63V539.82A123.75,123.75,0,0,0,766.61,416.06v319.7a20.62,20.62,0,0,0,20.62,20.63Z" style="fill: #2a3081"/>
    <path d="M725.36,544.76l-87.44-87.44L329.19,766a20.61,20.61,0,0,0,0,29.15l58.29,58.29a20.61,20.61,0,0,0,29.15,0Z" style="fill: #2a3081"/>
  </g>
</svg>
