<svg id="Calque_1" data-name="Calque 1" xmlns="http://www.w3.org/2000/svg" width="1080" height="1080" viewBox="0 0 1080 1080">
  <g>
    <circle cx="550.43" cy="384.66" r="117.36" style="fill: #2a3081"/>
    <path d="M461.76,528.09A104.32,104.32,0,0,0,357.45,632.41h313a52.16,52.16,0,0,1,52.16,52.16V820.18A20.86,20.86,0,0,0,743.42,841H806a20.86,20.86,0,0,0,20.86-20.86V684.57A156.48,156.48,0,0,0,670.4,528.09Z" style="fill: #2a3081"/>
    <path d="M293.13,632.41h64.32a0,0,0,0,1,0,0V819a22,22,0,0,1-22,22H275.13a22,22,0,0,1-22-22V672.41a40,40,0,0,1,40-40Z" style="fill: #fff"/>
  </g>
</svg>
