<svg id="Calque_1" data-name="Calque 1" xmlns="http://www.w3.org/2000/svg" width="1080" height="1080" viewBox="0 0 1080 1080">
  <rect x="-14.17" y="-23.58" width="1108.35" height="1108.35" style="fill: #2b2f80"/>
  <g>
    <g>
      <path d="M134.46,348.87q-11.31,0-19.48-4a27.9,27.9,0,0,1-12.52-12.33q-4.41-8.29-4.39-21.37v-54.7a3.33,3.33,0,0,1,.81-2.37,3,3,0,0,1,2.28-.88h6.89a3.23,3.23,0,0,1,2.35.88,3.2,3.2,0,0,1,.88,2.37v55q0,13.21,6.2,19.54t17,6.34q10.64,0,16.91-6.34c4.17-4.21,6.28-10.73,6.28-19.54v-55a3.26,3.26,0,0,1,.85-2.37,3.12,3.12,0,0,1,2.24-.88h7a3.09,3.09,0,0,1,2.23.88,3.24,3.24,0,0,1,.88,2.37v54.7q0,13.07-4.38,21.37A28.12,28.12,0,0,1,154,344.84Q145.91,348.88,134.46,348.87Z" style="fill: #fff"/>
      <path d="M194.7,347.53a3,3,0,0,1-2.22-.87,3,3,0,0,1-.88-2.22v-63.9a3,3,0,0,1,.88-2.21,3,3,0,0,1,2.22-.88H201a3,3,0,0,1,2.21.88,3,3,0,0,1,.88,2.21v5.95A27.61,27.61,0,0,1,213,279q5.29-2.89,13.66-2.9,8.79,0,14.9,3.84a23.88,23.88,0,0,1,9.23,10.64,38,38,0,0,1,3.1,15.84v38a3.24,3.24,0,0,1-.79,2.22,2.83,2.83,0,0,1-2.18.87h-6.73a3,3,0,0,1-2.22-.87,3,3,0,0,1-.87-2.22V307.11c0-6.3-1.54-11.21-4.59-14.77S228.94,287,223,287c-5.57,0-10,1.78-13.4,5.33s-5,8.47-5,14.77v37.33a3.09,3.09,0,0,1-.88,2.22,3,3,0,0,1-2.24.87Z" style="fill: #fff"/>
      <path d="M301.17,348.87q-13.89,0-22.11-8.55t-9-23.39c-.09-1.16-.13-2.67-.13-4.51s0-3.34.13-4.5a39.51,39.51,0,0,1,4.46-16.78A27.81,27.81,0,0,1,285.2,280a31.4,31.4,0,0,1,16-3.91q10.23,0,17.18,4.3a27.55,27.55,0,0,1,10.57,12.26,44.36,44.36,0,0,1,3.64,18.61v2.3a2.87,2.87,0,0,1-.88,2.28,3,3,0,0,1-2.21.81H282.83v1.21a27.94,27.94,0,0,0,2.44,10.31,19,19,0,0,0,6.18,7.76,16,16,0,0,0,9.72,3,19.29,19.29,0,0,0,8.07-1.49,20.29,20.29,0,0,0,5.27-3.29,25.32,25.32,0,0,0,2.7-2.76,7.21,7.21,0,0,1,1.88-2.11,5.14,5.14,0,0,1,2.15-.33h6.47a3.21,3.21,0,0,1,2.22.75,2.22,2.22,0,0,1,.74,2.08,10.34,10.34,0,0,1-2.15,4.92,25.4,25.4,0,0,1-5.79,5.74,32,32,0,0,1-9.17,4.63A38.2,38.2,0,0,1,301.17,348.87Zm-18.34-41.5h36.94V307a24.83,24.83,0,0,0-2.24-10.8,18,18,0,0,0-6.4-7.48,17.65,17.65,0,0,0-10-2.76,17.38,17.38,0,0,0-9.91,2.76,17.82,17.82,0,0,0-6.28,7.48,26,26,0,0,0-2.15,10.8Z" style="fill: #fff"/>
      <path d="M401.31,348.87A28,28,0,0,1,389,346.2a24,24,0,0,1-8.9-7.29,17.08,17.08,0,0,1-3.36-10.37,17.41,17.41,0,0,1,7.55-14.83q7.53-5.54,19.67-7.28l20.07-2.83v-3.91c0-4.32-1.22-7.67-3.7-10.11s-6.5-3.64-12.07-3.64c-4,0-7.3.81-9.76,2.43a13.12,13.12,0,0,0-5.2,6.19,2.84,2.84,0,0,1-2.83,2h-6.05a2.85,2.85,0,0,1-2.24-.88,3.22,3.22,0,0,1-.72-2.1,11.28,11.28,0,0,1,1.53-5,20.4,20.4,0,0,1,4.79-5.79,27.74,27.74,0,0,1,8.29-4.79,34.17,34.17,0,0,1,12.32-1.95,38.41,38.41,0,0,1,13.63,2.09,20.74,20.74,0,0,1,13.27,13.53,29.89,29.89,0,0,1,1.42,9v43.67a3.08,3.08,0,0,1-.87,2.22,3,3,0,0,1-2.24.87h-6.19a3,3,0,0,1-2.3-.87,3.21,3.21,0,0,1-.81-2.22v-5.81a24.68,24.68,0,0,1-4.72,4.8,25,25,0,0,1-7.41,3.91A33.49,33.49,0,0,1,401.31,348.87Zm2.83-10.09a21.73,21.73,0,0,0,10.11-2.37,16.56,16.56,0,0,0,7.19-7.35c1.76-3.31,2.63-7.5,2.63-12.52v-3.77l-15.64,2.28c-6.36.9-11.18,2.41-14.41,4.52s-4.84,4.78-4.84,8a9.08,9.08,0,0,0,2.21,6.25,13.53,13.53,0,0,0,5.66,3.7A20.9,20.9,0,0,0,404.14,338.78Z" style="fill: #fff"/>
      <path d="M484.46,348.87a34.57,34.57,0,0,1-16.51-3.7,25.56,25.56,0,0,1-10.71-10.64,36.54,36.54,0,0,1-4.06-16.65c-.08-1.34-.13-3.14-.13-5.38s.05-4.05.13-5.39a36.54,36.54,0,0,1,4.06-16.65A25.56,25.56,0,0,1,468,279.82a34.46,34.46,0,0,1,16.51-3.71,37.75,37.75,0,0,1,13.41,2.15,29,29,0,0,1,9.23,5.53,23.87,23.87,0,0,1,5.46,7.28,19.25,19.25,0,0,1,2,7.42,2.33,2.33,0,0,1-.81,2.15,3.52,3.52,0,0,1-2.3.81H505a2.93,2.93,0,0,1-2-.62,6.2,6.2,0,0,1-1.34-2.08c-1.62-4.41-3.81-7.5-6.6-9.3a18.77,18.77,0,0,0-10.38-2.7c-5.39,0-9.78,1.67-13.13,5s-5.2,8.69-5.47,16.06q-.12,4.83,0,9.43c.27,7.46,2.09,12.81,5.47,16.1s7.74,4.91,13.13,4.91A18.85,18.85,0,0,0,495,335.54c2.79-1.8,5-4.9,6.6-9.3a6.37,6.37,0,0,1,1.34-2.09,3.08,3.08,0,0,1,2-.61h6.45a3.47,3.47,0,0,1,2.3.81,2.37,2.37,0,0,1,.81,2.17,19.24,19.24,0,0,1-1.22,5.79,22.21,22.21,0,0,1-3.43,6,25.74,25.74,0,0,1-5.85,5.4,30,30,0,0,1-8.43,3.77A40.46,40.46,0,0,1,484.46,348.87Z" style="fill: #fff"/>
      <path d="M557.9,347.53c-5,0-9.12-1-12.26-2.89a16.62,16.62,0,0,1-6.86-8.23,33.16,33.16,0,0,1-2.18-12.59V288.24H526.1a3,3,0,0,1-3.1-3.11v-4.59a3,3,0,0,1,.88-2.21,3,3,0,0,1,2.22-.88h10.5V254.94a3,3,0,0,1,3.12-3.09H546a3,3,0,0,1,3.11,3.09v22.51h16.72a3,3,0,0,1,2.21.88,3,3,0,0,1,.88,2.21v4.59a3,3,0,0,1-3.09,3.11H549.15v34.64c0,4.21.72,7.54,2.15,10s4,3.64,7.68,3.64h8.22a3,3,0,0,1,3.1,3.11v4.85a3,3,0,0,1-.88,2.22,3,3,0,0,1-2.22.87Z" style="fill: #fff"/>
      <path d="M585.26,264.38a3,3,0,0,1-3.1-3.1V254a3,3,0,0,1,3.1-3.09h8.49a3,3,0,0,1,3.09,3.09v7.28a3,3,0,0,1-3.09,3.1Zm1.07,83.15a2.93,2.93,0,0,1-2.21-.87,3,3,0,0,1-.88-2.22v-63.9a3,3,0,0,1,.88-2.21,2.94,2.94,0,0,1,2.21-.88h6.47a2.73,2.73,0,0,1,2.15.88,3.13,3.13,0,0,1,.81,2.21v63.9a3.12,3.12,0,0,1-.81,2.22,2.73,2.73,0,0,1-2.15.87Z" style="fill: #fff"/>
      <path d="M640.25,347.53a4.75,4.75,0,0,1-3.16-.94,6.41,6.41,0,0,1-1.82-2.43l-24.94-62.52a3.65,3.65,0,0,1-.26-1.36,2.71,2.71,0,0,1,.81-2,2.65,2.65,0,0,1,2-.81h6.48a3.2,3.2,0,0,1,3.22,2.3l20.62,53.09,20.49-53.09a5,5,0,0,1,1-1.49,2.81,2.81,0,0,1,2.21-.81h6.63a2.8,2.8,0,0,1,2,.81,2.7,2.7,0,0,1,.88,2,3.69,3.69,0,0,1-.29,1.36L651,344.16a5.47,5.47,0,0,1-1.67,2.43,5,5,0,0,1-3.31.94Z" style="fill: #fff"/>
      <path d="M692.54,264.38a3,3,0,0,1-3.11-3.1V254a3,3,0,0,1,3.11-3.09H701a3,3,0,0,1,2.22.88,2.93,2.93,0,0,1,.87,2.21v7.28a3,3,0,0,1-.87,2.22,3,3,0,0,1-2.22.88Zm1.08,83.15a3,3,0,0,1-2.24-.87,3.09,3.09,0,0,1-.88-2.22v-63.9a3.1,3.1,0,0,1,.88-2.21,3,3,0,0,1,2.24-.88h6.47a2.78,2.78,0,0,1,2.15.88,3.13,3.13,0,0,1,.81,2.21v63.9a3.12,3.12,0,0,1-.81,2.22,2.77,2.77,0,0,1-2.15.87Z" style="fill: #fff"/>
      <path d="M750.47,347.53c-5,0-9.12-1-12.26-2.89a16.67,16.67,0,0,1-6.86-8.23,33.16,33.16,0,0,1-2.18-12.59V288.24h-10.5a3,3,0,0,1-3.1-3.11v-4.59a3,3,0,0,1,.88-2.21,3,3,0,0,1,2.22-.88h10.5V254.94a3,3,0,0,1,3.12-3.09h6.32a3,3,0,0,1,3.11,3.09v22.51h16.72a3,3,0,0,1,2.21.88,3,3,0,0,1,.88,2.21v4.59a3,3,0,0,1-3.09,3.11H741.72v34.64c0,4.21.73,7.54,2.15,10s4,3.64,7.68,3.64h8.22a3,3,0,0,1,3.1,3.11v4.85a3,3,0,0,1-.88,2.22,3,3,0,0,1-2.22.87Z" style="fill: #fff"/>
      <path d="M803.71,348.87q-13.89,0-22.09-8.55t-9-23.39c-.08-1.16-.13-2.67-.13-4.51s0-3.34.13-4.5A39.36,39.36,0,0,1,777,291.14,27.63,27.63,0,0,1,787.74,280a31.5,31.5,0,0,1,16-3.91c6.82,0,12.57,1.43,17.2,4.3a27.8,27.8,0,0,1,10.57,12.26,44.68,44.68,0,0,1,3.64,18.61v2.3a3,3,0,0,1-.87,2.28,3.17,3.17,0,0,1-2.24.81H785.4v1.21a28.12,28.12,0,0,0,2.41,10.31A19.2,19.2,0,0,0,794,336a15.89,15.89,0,0,0,9.69,3,19.37,19.37,0,0,0,8.1-1.49,20.42,20.42,0,0,0,5.24-3.29,21.23,21.23,0,0,0,2.7-2.76,7.51,7.51,0,0,1,1.88-2.11,5.34,5.34,0,0,1,2.17-.33h6.47a3.28,3.28,0,0,1,2.22.75,2.25,2.25,0,0,1,.75,2.08,10.34,10.34,0,0,1-2.18,4.92,24.8,24.8,0,0,1-5.79,5.74,31.77,31.77,0,0,1-9.17,4.63A38.12,38.12,0,0,1,803.71,348.87Zm-18.31-41.5h36.91V307a25.26,25.26,0,0,0-2.21-10.8,18.11,18.11,0,0,0-6.41-7.48,17.7,17.7,0,0,0-10-2.76,17.31,17.31,0,0,0-9.89,2.76,17.75,17.75,0,0,0-6.28,7.48A25.71,25.71,0,0,0,785.4,307Zm14.67-40a1.9,1.9,0,0,1-2.15-2.15,2.35,2.35,0,0,1,.68-1.76l10.11-12.13a7.14,7.14,0,0,1,2.15-2,6.6,6.6,0,0,1,2.83-.46h9.17a2.26,2.26,0,0,1,2.55,2.55,2.22,2.22,0,0,1-.66,1.62l-15.64,12.81a6,6,0,0,1-2,1.21,9.68,9.68,0,0,1-2.44.26Z" style="fill: #fff"/>
      <path d="M909.92,348.87a28.86,28.86,0,0,1-12.81-2.61,24.16,24.16,0,0,1-8.82-7.15,31,31,0,0,1-5.13-10.31,51.17,51.17,0,0,1-1.95-12.26c-.09-1.45-.13-2.79-.13-4s0-2.61.13-4.05a50.74,50.74,0,0,1,1.95-12.13,31.7,31.7,0,0,1,5.13-10.38,24,24,0,0,1,8.82-7.22,29.28,29.28,0,0,1,12.81-2.61q7.94,0,13.21,2.83a27.67,27.67,0,0,1,8.62,7v-31a2.92,2.92,0,0,1,.88-2.21,3,3,0,0,1,2.21-.88h6.47a3,3,0,0,1,3.12,3.09v89.5a3.09,3.09,0,0,1-.88,2.22,3,3,0,0,1-2.24.87h-6a3,3,0,0,1-2.31-.87,3.23,3.23,0,0,1-.78-2.22v-5.66a27.4,27.4,0,0,1-8.78,7.2C919.79,347.91,915.32,348.87,909.92,348.87Zm2.83-10.9c4.5,0,8.07-1,10.77-3.11A19.31,19.31,0,0,0,929.6,327a26.89,26.89,0,0,0,2.15-9.76c.09-1.45.13-3.18.13-5.2s0-3.75-.13-5.18a24.08,24.08,0,0,0-2.22-9.3,18.65,18.65,0,0,0-6.2-7.54,17.55,17.55,0,0,0-10.58-3q-6.87,0-10.92,3.05A16.67,16.67,0,0,0,896,298a36.19,36.19,0,0,0-2,10.58q-.13,3.92,0,7.83A36.06,36.06,0,0,0,896,327a16.68,16.68,0,0,0,5.79,8Q905.88,338,912.75,338Z" style="fill: #fff"/>
      <path d="M992.4,348.87q-13.89,0-22.11-8.55t-9-23.39c-.09-1.16-.13-2.67-.13-4.51s0-3.34.13-4.5a39.5,39.5,0,0,1,4.45-16.78A27.83,27.83,0,0,1,976.43,280a31.4,31.4,0,0,1,16-3.91q10.23,0,17.18,4.3a27.55,27.55,0,0,1,10.57,12.26,44.36,44.36,0,0,1,3.64,18.61v2.3a2.9,2.9,0,0,1-.88,2.28,3,3,0,0,1-2.21.81H974.06v1.21a27.94,27.94,0,0,0,2.44,10.31,18.89,18.89,0,0,0,6.18,7.76,16,16,0,0,0,9.72,3,19.32,19.32,0,0,0,8.07-1.49,20.29,20.29,0,0,0,5.27-3.29,25,25,0,0,0,2.69-2.76,7.35,7.35,0,0,1,1.89-2.11,5.14,5.14,0,0,1,2.15-.33h6.47a3.21,3.21,0,0,1,2.22.75,2.22,2.22,0,0,1,.74,2.08,10.34,10.34,0,0,1-2.15,4.92,25.4,25.4,0,0,1-5.79,5.74,32,32,0,0,1-9.17,4.63A38.2,38.2,0,0,1,992.4,348.87Zm-18.34-41.5H1011V307a24.83,24.83,0,0,0-2.24-10.8,18,18,0,0,0-6.4-7.48,17.65,17.65,0,0,0-10-2.76,17.43,17.43,0,0,0-9.92,2.76,17.87,17.87,0,0,0-6.27,7.48,26,26,0,0,0-2.15,10.8Z" style="fill: #fff"/>
    </g>
    <g>
      <path d="M471.41,760h15.74a10.43,10.43,0,0,0,10.49-10.38V703a10.43,10.43,0,0,0-10.49-10.38H403.23c0,37.25,30.53,67.45,68.18,67.45" style="fill: #fff"/>
      <path d="M217.58,579.72c-52.47-13.4-65.47-19.88-65.47-39.78v-.87c0-14.69,13.44-26.36,39-26.36,22.93,0,46.56,9,70.59,24.3a10.45,10.45,0,0,0,14.16-2.91l23.21-33.56a10.38,10.38,0,0,0-2.62-14.39c-29.2-20.74-64.13-32.24-104.48-32.24-62,0-106.25,36.3-106.25,91.22V546c0,60.1,39.47,77,100.62,92.52,50.73,13,61.14,21.62,61.14,38.48v.87c0,17.73-16.48,28.53-43.8,28.53-31.41,0-57.84-11.68-82.84-30.59a10.46,10.46,0,0,0-14.31,1.65l-26.31,31.4a10.37,10.37,0,0,0,1.53,14.79c35.06,27.82,78,41.56,120.63,41.56,65.48,0,111.44-33.72,111.44-93.82v-.87c0-52.75-34.69-74.8-96.27-90.8" style="fill: #fff"/>
      <path d="M492.39,500.6H403.23V440.93a10.44,10.44,0,0,0-10.5-10.38H345.54A10.44,10.44,0,0,0,335,440.93V625.12c0,37.26,30.53,67.46,68.19,67.46V562.86h89.16a10.43,10.43,0,0,0,10.49-10.38V511a10.43,10.43,0,0,0-10.49-10.38" style="fill: #fff"/>
      <path d="M574.85,619.32c6.27-28.39,25.5-46.68,52.62-46.68,27.53,0,46.36,18.68,51.43,46.68Zm52.62-100.56c-70,0-118.91,55.65-118.91,123.22v.89c0,72.44,53.4,122.34,125.64,122.34,39.08,0,69.13-13.54,91.1-36.13a10.27,10.27,0,0,0-.72-14.9L700.3,693a10.63,10.63,0,0,0-13.62-.2c-16.2,13-31.46,18.5-51.58,18.5-29.25,0-51.41-14.66-59.13-42.71H733.89A10.13,10.13,0,0,0,744.28,659c.17-3.68.3-7.44.3-10.86v-.89c0-67.13-36.79-128.52-117.11-128.52" style="fill: #fff"/>
      <path d="M959.55,642.54c0,39.92-26.83,65.66-58.58,65.66S842.84,682,842.84,642.54v-.89c0-39.48,26.38-65.66,58.13-65.66s58.58,26.18,58.58,65.66ZM918.41,518.76c-35.32,0-57.91,16.41-74.46,38.6v-23A10.42,10.42,0,0,0,833.46,524h-47.2a10.43,10.43,0,0,0-10.49,10.37V804.13a10.43,10.43,0,0,0,10.49,10.37h47.2A10.42,10.42,0,0,0,844,804.13v-74.2c16.1,19.08,38.25,35.5,74.46,35.5,56.8,0,109.12-43.49,109.12-122.89v-.89c0-79.42-53.21-122.89-109.12-122.89" style="fill: #fff"/>
    </g>
  </g>
</svg>
