<svg id="Calque_1" data-name="Calque 1" xmlns="http://www.w3.org/2000/svg" width="1080" height="1080" viewBox="0 0 1080 1080">
  <rect x="-14.17" y="-23.58" width="1108.35" height="1108.35" style="fill: #2b2f80"/>
  <g>
    <path d="M124.61,519.45c-24.94-6.44-31.13-9.56-31.13-19.11v-.4c0-7.07,6.39-12.67,18.56-12.67,10.91,0,22.14,4.33,33.56,11.66a4.93,4.93,0,0,0,6.73-1.39l11-16.11a5,5,0,0,0-1.25-6.92c-13.88-9.95-30.5-15.48-49.68-15.48-29.48,0-50.5,17.44-50.5,43.81v.41c0,28.87,18.76,37,47.82,44.43,24.13,6.23,29.08,10.38,29.08,18.49v.4c0,8.52-7.83,13.71-20.82,13.71-14.94,0-27.51-5.62-39.39-14.69a5,5,0,0,0-6.81.78l-12.5,15.09a5,5,0,0,0,.73,7.1,91.68,91.68,0,0,0,57.35,20c31.12,0,53-16.2,53-45.06v-.41c0-25.33-16.49-35.92-45.77-43.6" style="fill: #fff"/>
    <path d="M255.26,481.45H212.88V452.8a5,5,0,0,0-5-5H185.45a5,5,0,0,0-5,5v88.45a32.41,32.41,0,0,0,32.43,32.38V511.35h42.38a5,5,0,0,0,5-5V486.44a5,5,0,0,0-5-5" style="fill: #fff"/>
    <path d="M245.29,606h7.48a5,5,0,0,0,5-5V578.61a5,5,0,0,0-5-5h-39.9A32.41,32.41,0,0,0,245.29,606" style="fill: #fff"/>
    <path d="M294.46,538.46c3-13.63,12.13-22.41,25-22.41,13.09,0,22,9,24.45,22.41Zm25-48.29c-33.28,0-56.53,26.73-56.53,59.18v.41c0,34.79,25.38,58.75,59.73,58.75,18.59,0,32.87-6.5,43.31-17.34a5,5,0,0,0-.35-7.17l-11.53-10.15a5,5,0,0,0-6.48-.09c-7.7,6.25-15,8.88-24.52,8.88-13.91,0-24.44-7-28.12-20.51h75.08a4.83,4.83,0,0,0,4.95-4.6c.08-1.77.13-3.57.13-5.22v-.42c0-32.24-17.49-61.72-55.67-61.72" style="fill: #fff"/>
    <path d="M477.36,549.6c0,19.18-12.76,31.53-27.85,31.53s-27.63-12.56-27.63-31.53v-.41c0-19,12.54-31.53,27.63-31.53s27.85,12.56,27.85,31.53Zm-19.55-59.43c-16.79,0-27.54,7.88-35.41,18.53V497.64a5,5,0,0,0-5-5H395a5,5,0,0,0-5,5V627.2a5,5,0,0,0,5,5h22.44a5,5,0,0,0,5-5V591.57c7.65,9.17,18.18,17,35.41,17,27,0,51.87-20.88,51.87-59v-.41c0-38.14-25.3-59-51.87-59" style="fill: #fff"/>
    <path d="M682.09,530.15q16.1,0,24.35-7.27t8.26-21.15q0-13.86-8.14-21.25t-24.47-7.39H644v57.06ZM623.6,607.38a4.94,4.94,0,0,1-1.43-3.63V459.88A5.25,5.25,0,0,1,623.6,456a4.94,4.94,0,0,1,3.64-1.43h56q24.88,0,39.22,12.13t14.32,35q0,22.92-14.22,34.92t-39.32,12h-39v55.09a4.71,4.71,0,0,1-1.55,3.63,5.24,5.24,0,0,1-3.73,1.43H627.24a4.9,4.9,0,0,1-3.64-1.43" style="fill: #fff"/>
    <path d="M817,585.24q8-8.82,8.71-25.34c.14-1.46.22-4.26.22-8.37s-.08-6.91-.22-8.38q-.68-16.51-8.71-25.34T795.12,509q-13.86,0-22,8.8t-8.59,25.34l-.22,8.38.22,8.37q.42,16.51,8.59,25.34t22,8.8q13.88,0,21.92-8.8m-59.48,12.11Q744.22,583.7,743.34,561l-.21-9.47.21-9.48q.88-22.47,14.32-36.25T795.12,492q24,0,37.46,13.76t14.32,36.25c.15,1.62.22,4.77.22,9.48s-.07,7.86-.22,9.47q-.89,22.69-14.21,36.35T795.12,611q-24.24,0-37.56-13.66" style="fill: #fff"/>
    <path d="M877.41,606.05q-10.47-4.95-15.65-11.34c-3.45-4.26-5.16-7.78-5.16-10.58a4,4,0,0,1,1.64-3.41,5.78,5.78,0,0,1,3.42-1.21h9.91a5.05,5.05,0,0,1,4,2.2A43.61,43.61,0,0,0,887,591.4q6.16,3.54,16.53,3.53,11.46,0,18.61-4.52T929.29,578a12.83,12.83,0,0,0-3-8.7c-2-2.27-5.37-4.26-10.14-5.94a190.86,190.86,0,0,0-21.26-5.63q-19.17-4.17-27.21-12.11t-8.05-20.5a28.72,28.72,0,0,1,5-16,35.79,35.79,0,0,1,14.54-12.34q9.58-4.74,23-4.74,14.12,0,24,4.63t14.88,10.9Q946,513.84,946,518a4.32,4.32,0,0,1-1.43,3.3,4.87,4.87,0,0,1-3.41,1.32h-9.26a5.41,5.41,0,0,1-4.41-2.2,69,69,0,0,0-6.06-6.5,22.21,22.21,0,0,0-7.27-4.07,34.72,34.72,0,0,0-12-1.77q-10.56,0-16.29,4.52a14.28,14.28,0,0,0-5.74,11.78,12.49,12.49,0,0,0,2.43,7.83c1.61,2.13,4.74,4.07,9.36,5.84a149.28,149.28,0,0,0,20.16,5.5Q933,548,941.75,556.26t8.7,21a28.91,28.91,0,0,1-5.51,17.18q-5.52,7.72-16.19,12.13T903.3,611q-15.43,0-25.89-5" style="fill: #fff"/>
    <path d="M974.68,570V511.87H957.5a4.89,4.89,0,0,1-5.07-5.07v-7.49a4.91,4.91,0,0,1,5.07-5.07h17.18V457.45a4.91,4.91,0,0,1,5.07-5.07H990.1a4.92,4.92,0,0,1,5.07,5.07v36.79h27.32a4.91,4.91,0,0,1,5.07,5.07v7.49a4.89,4.89,0,0,1-5.07,5.07H995.17v56.61q0,11,3.75,16.64t12.34,5.62h13.44a4.89,4.89,0,0,1,5.06,5.07v7.93a5,5,0,0,1-1.43,3.64,4.9,4.9,0,0,1-3.63,1.43h-15.21q-34.82,0-34.81-38.78" style="fill: #fff"/>
  </g>
</svg>
